<svg id="svg" version="1.1" xmlns="http://www.w3.org/2000/svg" xmlns:xlink="http://www.w3.org/1999/xlink" width="150" height="50" viewBox="0, 0, 400,112.73247496423463"><g id="svgg"><path id="path0" d="M47.999 24.917 L 44.585 28.334 58.417 42.167 L 72.249 56.000 58.333 69.917 L 44.418 83.833 47.952 87.368 L 51.487 90.903 68.869 73.538 L 86.250 56.173 68.917 38.836 C 59.384 29.301,51.546 21.500,51.499 21.500 C 51.452 21.500,49.877 23.038,47.999 24.917 M74.862 24.692 C 72.028 25.780,70.636 29.514,72.040 32.257 C 74.680 37.412,82.408 35.605,82.403 29.833 C 82.399 25.852,78.595 23.258,74.862 24.692 M36.825 36.258 L 33.419 39.668 41.584 47.834 L 49.749 56.000 41.500 64.250 L 33.252 72.499 36.750 76.000 L 40.248 79.501 51.953 67.797 L 63.658 56.093 52.704 45.189 C 46.679 39.191,41.408 33.961,40.991 33.567 L 40.232 32.849 36.825 36.258 M158.431 37.926 C 150.669 38.983,146.550 42.985,147.314 48.727 C 148.027 54.084,151.777 56.395,162.083 57.828 C 169.169 58.814,170.425 59.257,171.268 61.067 C 172.935 64.649,169.118 67.110,162.417 66.774 C 157.307 66.517,155.047 65.152,153.995 61.688 L 153.634 60.500 149.984 60.500 L 146.333 60.500 146.333 60.924 C 146.333 66.924,151.125 71.245,158.917 72.269 C 172.178 74.014,181.131 68.416,178.903 59.774 C 177.661 54.960,174.320 53.231,162.917 51.501 C 156.033 50.457,154.667 49.753,154.667 47.250 C 154.667 44.693,157.419 43.348,162.667 43.342 C 166.848 43.337,169.194 44.339,170.647 46.750 L 171.250 47.750 172.417 47.632 C 174.508 47.419,178.249 46.963,178.303 46.914 C 178.573 46.670,177.229 43.663,176.273 42.375 C 173.480 38.609,166.393 36.842,158.431 37.926 M278.000 37.848 C 268.223 39.103,262.333 45.580,262.333 55.076 C 262.333 65.819,269.707 72.500,281.564 72.500 C 293.481 72.500,300.698 65.971,300.727 55.167 C 300.758 43.157,291.515 36.113,278.000 37.848 M100.833 55.083 L 100.833 71.667 104.500 71.667 L 108.167 71.667 108.167 65.000 L 108.167 58.333 117.250 58.333 L 126.333 58.333 126.333 55.335 L 126.333 52.336 117.292 52.293 L 108.250 52.250 108.205 48.375 L 108.161 44.500 117.747 44.500 L 127.333 44.500 127.333 41.500 L 127.333 38.500 114.083 38.500 L 100.833 38.500 100.833 55.083 M133.000 55.083 L 133.000 71.667 136.667 71.667 L 140.333 71.667 140.333 55.083 L 140.333 38.500 136.667 38.500 L 133.000 38.500 133.000 55.083 M185.500 55.083 L 185.500 71.667 189.250 71.667 L 193.000 71.667 193.000 64.750 L 193.000 57.833 202.083 57.833 L 211.167 57.833 211.167 64.750 L 211.167 71.667 214.833 71.667 L 218.500 71.667 218.500 55.083 L 218.500 38.500 214.833 38.500 L 211.167 38.500 211.167 44.917 L 211.167 51.333 202.083 51.333 L 193.000 51.333 193.000 44.917 L 193.000 38.500 189.250 38.500 L 185.500 38.500 185.500 55.083 M226.833 55.072 L 226.833 71.667 236.375 71.663 C 248.093 71.659,249.864 71.479,252.899 69.979 C 260.121 66.409,259.317 56.429,251.633 54.269 C 251.303 54.176,251.432 54.065,252.560 53.468 C 258.558 50.296,257.850 42.166,251.363 39.724 C 248.480 38.639,248.229 38.618,237.042 38.544 L 226.833 38.477 226.833 55.072 M307.000 55.080 L 307.000 71.667 310.583 71.667 L 314.167 71.667 314.167 60.072 L 314.167 48.478 315.375 49.946 C 316.040 50.753,317.896 52.996,319.500 54.929 C 321.104 56.863,324.884 61.419,327.899 65.056 L 333.381 71.667 336.774 71.667 L 340.167 71.667 340.167 55.083 L 340.167 38.500 336.584 38.500 L 333.002 38.500 332.959 50.024 L 332.917 61.548 328.667 56.417 C 326.329 53.594,323.542 50.227,322.473 48.934 C 321.404 47.641,319.037 44.783,317.212 42.583 L 313.895 38.583 310.447 38.538 L 307.000 38.493 307.000 55.080 M348.500 55.083 L 348.500 71.667 362.413 71.667 L 376.327 71.667 376.409 71.292 C 376.453 71.085,376.604 70.129,376.743 69.167 C 376.883 68.204,377.061 67.023,377.140 66.542 L 377.284 65.667 366.558 65.667 L 355.833 65.667 355.833 61.667 L 355.833 57.667 365.583 57.667 L 375.333 57.667 375.333 54.583 L 375.333 51.500 365.583 51.500 L 355.833 51.500 355.833 48.000 L 355.833 44.500 366.000 44.500 L 376.167 44.500 376.167 41.500 L 376.167 38.500 362.333 38.500 L 348.500 38.500 348.500 55.083 M285.390 44.152 C 290.452 45.478,293.076 49.206,293.081 55.083 C 293.088 62.374,288.998 66.400,281.583 66.400 C 274.134 66.400,270.100 62.425,270.100 55.083 C 270.100 46.621,276.728 41.883,285.390 44.152 M25.603 47.364 L 22.290 50.703 24.925 53.341 L 27.560 55.980 24.840 58.675 L 22.121 61.370 25.644 64.893 L 29.167 68.416 35.291 62.292 L 41.416 56.167 35.334 50.084 C 31.989 46.738,29.176 44.006,29.084 44.012 C 28.992 44.019,27.426 45.527,25.603 47.364 M245.162 44.176 C 248.338 44.574,249.846 46.136,249.319 48.481 C 248.691 51.278,247.512 51.676,239.542 51.790 L 233.833 51.871 233.833 47.936 L 233.833 44.000 238.796 44.000 C 241.526 44.000,244.390 44.079,245.162 44.176 M246.522 57.407 C 249.441 58.025,250.986 59.922,250.577 62.383 C 250.053 65.530,248.100 66.165,238.958 66.166 L 233.833 66.167 233.833 61.667 L 233.833 57.167 239.625 57.170 C 243.955 57.172,245.696 57.232,246.522 57.407 " stroke="none" fill="#fbfbfb" fill-rule="evenodd"></path><path id="path1" d="M0.000 56.333 L 0.000 112.667 200.000 112.667 L 400.000 112.667 400.000 56.333 L 400.000 0.000 200.000 0.000 L 0.000 0.000 0.000 56.333 M69.126 38.929 L 86.357 56.108 68.887 73.549 L 51.417 90.989 47.833 87.410 L 44.250 83.831 58.206 69.880 L 72.162 55.929 58.297 42.125 L 44.433 28.320 47.916 24.834 C 50.828 21.920,51.440 21.381,51.648 21.549 C 51.785 21.659,59.650 29.480,69.126 38.929 M79.393 24.759 C 81.323 25.753,82.517 27.592,82.548 29.617 C 82.642 35.690,74.415 37.587,71.891 32.075 C 69.742 27.380,74.837 22.411,79.393 24.759 M52.042 67.874 L 40.335 79.582 36.750 76.000 L 33.166 72.419 41.374 64.209 L 49.582 56.000 41.417 47.834 L 33.252 39.668 36.750 36.166 L 40.248 32.665 51.999 44.416 L 63.750 56.167 52.042 67.874 M165.996 37.672 C 172.710 38.266,176.940 41.199,178.251 46.170 C 178.511 47.157,178.933 46.998,174.750 47.487 C 170.885 47.938,171.110 47.952,170.852 47.239 C 170.583 46.495,168.967 44.826,168.083 44.378 C 165.023 42.830,157.649 43.226,155.701 45.043 C 153.745 46.868,154.560 49.350,157.441 50.342 C 158.577 50.733,159.230 50.850,167.083 52.065 C 174.691 53.242,178.462 55.948,179.176 60.745 C 180.182 67.511,175.175 71.932,165.883 72.481 C 153.710 73.200,147.374 69.589,146.253 61.292 L 146.146 60.500 149.975 60.500 L 153.804 60.500 153.918 61.177 C 154.545 64.884,157.617 66.663,163.396 66.665 C 168.962 66.668,171.417 65.393,171.417 62.501 C 171.417 59.761,170.158 59.090,163.132 58.079 C 152.251 56.514,148.809 54.736,147.438 49.974 C 145.132 41.966,153.304 36.549,165.996 37.672 M284.382 37.671 C 294.703 38.650,300.871 45.158,300.882 55.083 C 300.894 66.606,292.445 73.417,279.293 72.485 C 268.076 71.690,261.228 63.906,262.331 53.206 C 263.436 42.487,271.946 36.492,284.382 37.671 M127.333 41.500 L 127.333 44.667 117.833 44.667 L 108.333 44.667 108.333 48.417 L 108.333 52.167 117.333 52.167 L 126.333 52.167 126.333 55.333 L 126.333 58.500 117.333 58.500 L 108.333 58.500 108.333 65.167 L 108.333 71.833 104.500 71.833 L 100.667 71.833 100.667 55.083 L 100.667 38.333 114.000 38.333 L 127.333 38.333 127.333 41.500 M140.417 55.083 L 140.417 71.750 136.625 71.795 L 132.833 71.840 132.833 55.083 L 132.833 38.327 136.625 38.372 L 140.417 38.417 140.417 55.083 M193.000 44.750 L 193.000 51.167 202.000 51.167 L 211.000 51.167 211.000 44.750 L 211.000 38.333 214.833 38.333 L 218.667 38.333 218.667 55.083 L 218.667 71.833 214.833 71.833 L 211.000 71.833 211.000 64.833 L 211.000 57.833 202.000 57.833 L 193.000 57.833 193.000 64.836 L 193.000 71.840 189.208 71.795 L 185.417 71.750 185.374 55.250 C 185.350 46.175,185.366 38.656,185.410 38.542 C 185.470 38.384,186.394 38.333,189.245 38.333 L 193.000 38.333 193.000 44.750 M248.069 38.726 C 254.029 39.929,256.658 42.463,256.665 47.011 C 256.669 49.944,255.135 52.386,252.514 53.617 L 251.556 54.067 253.153 54.851 C 260.189 58.303,259.465 67.602,251.934 70.516 C 248.996 71.653,246.319 71.859,235.333 71.798 L 226.750 71.750 226.707 55.250 C 226.683 46.175,226.702 38.651,226.748 38.529 C 226.882 38.178,246.240 38.357,248.069 38.726 M315.766 40.708 C 320.384 46.273,321.783 47.961,324.920 51.750 C 326.741 53.950,329.285 57.018,330.574 58.569 L 332.917 61.388 332.959 49.860 L 333.002 38.333 336.584 38.333 L 340.167 38.333 340.167 55.083 L 340.167 71.833 336.783 71.833 L 333.400 71.833 329.992 67.718 C 328.117 65.454,325.678 62.510,324.571 61.176 C 320.599 56.388,316.056 50.896,315.162 49.799 L 314.250 48.682 314.207 60.261 L 314.164 71.840 310.541 71.795 L 306.917 71.750 306.874 55.250 C 306.850 46.175,306.866 38.656,306.910 38.542 C 306.970 38.384,307.824 38.333,310.392 38.333 L 313.795 38.333 315.766 40.708 M376.333 41.500 L 376.333 44.667 366.167 44.667 L 356.000 44.667 356.000 48.083 L 356.000 51.500 365.667 51.500 L 375.333 51.500 375.333 54.583 L 375.333 57.667 365.667 57.667 L 356.000 57.667 356.000 61.583 L 356.000 65.500 366.667 65.500 C 372.533 65.500,377.333 65.523,377.333 65.552 C 377.333 65.624,376.653 70.267,376.523 71.083 L 376.417 71.750 362.375 71.793 L 348.333 71.835 348.333 55.084 L 348.333 38.333 362.333 38.333 L 376.333 38.333 376.333 41.500 M35.417 50.000 L 41.582 56.167 35.405 62.344 L 29.228 68.521 25.698 64.996 C 23.756 63.057,22.167 61.422,22.167 61.362 C 22.167 61.302,23.347 60.071,24.790 58.626 L 27.414 55.999 24.791 53.375 L 22.167 50.752 25.624 47.293 C 27.525 45.390,29.119 43.833,29.166 43.833 C 29.213 43.833,32.026 46.608,35.417 50.000 M279.083 43.930 C 273.962 45.117,271.562 47.301,270.490 51.750 C 269.213 57.051,271.197 62.752,275.060 64.884 C 277.714 66.348,282.944 66.784,285.917 65.788 C 290.731 64.176,292.910 60.843,292.914 55.083 C 292.918 49.248,290.601 45.785,285.700 44.300 C 284.617 43.972,280.013 43.715,279.083 43.930 M233.833 47.814 L 233.833 51.667 238.905 51.667 C 247.684 51.667,249.586 50.887,249.298 47.409 C 249.074 44.702,247.499 44.178,239.208 44.046 L 233.833 43.960 233.833 47.814 M233.833 61.583 L 233.833 66.000 239.675 66.000 C 248.772 66.000,250.509 65.298,250.496 61.630 C 250.484 58.004,248.419 57.182,239.292 57.172 L 233.833 57.167 233.833 61.583 " stroke="none" fill="#14446c" fill-rule="evenodd"></path><path id="path2" d="M36.665 36.292 L 33.250 39.750 36.708 36.335 C 38.610 34.457,40.167 32.900,40.167 32.877 C 40.167 32.758,39.838 33.078,36.665 36.292 M40.917 33.500 C 41.275 33.867,41.605 34.167,41.651 34.167 C 41.697 34.167,41.441 33.867,41.083 33.500 C 40.725 33.133,40.395 32.833,40.349 32.833 C 40.303 32.833,40.559 33.133,40.917 33.500 M44.330 36.875 C 45.953 38.539,46.167 38.742,46.167 38.622 C 46.167 38.597,45.360 37.791,44.375 36.830 L 42.583 35.083 44.330 36.875 M100.747 55.083 C 100.747 64.250,100.767 68.024,100.792 63.471 C 100.816 58.918,100.816 51.418,100.792 46.804 C 100.767 42.191,100.747 45.917,100.747 55.083 M132.913 55.083 C 132.913 64.250,132.934 68.024,132.958 63.471 C 132.983 58.918,132.983 51.418,132.958 46.804 C 132.934 42.191,132.914 45.917,132.913 55.083 M218.580 55.083 C 218.580 64.250,218.600 68.024,218.625 63.471 C 218.650 58.918,218.650 51.418,218.625 46.804 C 218.600 42.191,218.580 45.917,218.580 55.083 M348.413 55.083 C 348.413 64.250,348.434 68.024,348.458 63.471 C 348.483 58.918,348.483 51.418,348.458 46.804 C 348.434 42.191,348.414 45.917,348.413 55.083 M376.236 41.500 C 376.236 43.196,376.261 43.890,376.291 43.042 C 376.321 42.194,376.321 40.806,376.291 39.958 C 376.261 39.110,376.236 39.804,376.236 41.500 M149.406 41.708 L 148.917 42.250 149.458 41.760 C 149.756 41.491,150.000 41.248,150.000 41.219 C 150.000 41.090,149.862 41.203,149.406 41.708 M35.245 49.999 L 41.417 56.164 35.250 62.374 L 29.084 68.583 35.333 62.375 L 41.582 56.167 35.417 50.000 C 32.026 46.608,29.212 43.833,29.163 43.833 C 29.114 43.833,31.851 46.608,35.245 49.999 M169.167 45.052 C 169.167 45.081,169.410 45.325,169.708 45.594 L 170.250 46.083 169.760 45.542 C 169.304 45.037,169.167 44.923,169.167 45.052 M22.361 50.550 C 22.222 50.718,22.800 51.377,24.882 53.425 L 27.583 56.083 24.955 53.412 C 22.888 51.310,22.370 50.696,22.530 50.537 C 22.642 50.425,22.690 50.333,22.637 50.333 C 22.584 50.333,22.460 50.431,22.361 50.550 M236.302 51.791 C 237.706 51.819,239.956 51.819,241.302 51.791 C 242.648 51.763,241.500 51.740,238.750 51.741 C 236.000 51.741,234.898 51.763,236.302 51.791 M112.792 52.292 C 115.290 52.317,119.377 52.317,121.875 52.292 C 124.373 52.266,122.329 52.244,117.333 52.244 C 112.337 52.244,110.294 52.266,112.792 52.292 M51.916 67.875 L 40.250 79.583 51.958 67.917 C 58.398 61.501,63.667 56.232,63.667 56.209 C 63.667 56.092,62.761 56.991,51.916 67.875 M171.545 62.500 C 171.545 62.913,171.578 63.081,171.618 62.875 C 171.657 62.669,171.657 62.331,171.618 62.125 C 171.578 61.919,171.545 62.087,171.545 62.500 M290.073 63.375 L 289.583 63.917 290.125 63.427 C 290.423 63.158,290.667 62.914,290.667 62.885 C 290.667 62.757,290.529 62.870,290.073 63.375 " stroke="none" fill="#8ca4b4" fill-rule="evenodd"></path><path id="path3" d="M161.792 37.618 C 161.998 37.657,162.335 37.657,162.542 37.618 C 162.748 37.578,162.579 37.545,162.167 37.545 C 161.754 37.545,161.585 37.578,161.792 37.618 M163.460 37.618 C 163.668 37.658,163.968 37.656,164.127 37.615 C 164.286 37.573,164.117 37.540,163.750 37.542 C 163.383 37.544,163.253 37.578,163.460 37.618 M281.042 37.621 C 281.385 37.657,281.948 37.657,282.292 37.621 C 282.635 37.585,282.354 37.556,281.667 37.556 C 280.979 37.556,280.698 37.585,281.042 37.621 M107.471 38.458 C 111.167 38.483,117.167 38.483,120.804 38.458 C 124.441 38.433,121.417 38.413,114.083 38.413 C 106.750 38.413,103.774 38.433,107.471 38.458 M134.792 38.458 C 135.823 38.487,137.510 38.487,138.542 38.458 C 139.573 38.429,138.729 38.405,136.667 38.405 C 134.604 38.405,133.760 38.429,134.792 38.458 M187.292 38.458 C 188.323 38.487,190.010 38.487,191.042 38.458 C 192.073 38.429,191.229 38.405,189.167 38.405 C 187.104 38.405,186.260 38.429,187.292 38.458 M211.076 38.542 C 211.032 38.657,211.017 41.601,211.042 45.084 L 211.087 51.417 211.127 44.962 L 211.167 38.506 214.875 38.458 L 218.583 38.410 214.870 38.372 C 212.019 38.342,211.138 38.382,211.076 38.542 M231.125 38.458 C 233.531 38.484,237.469 38.484,239.875 38.458 C 242.281 38.432,240.313 38.411,235.500 38.411 C 230.688 38.411,228.719 38.432,231.125 38.458 M308.717 38.458 C 309.708 38.487,311.283 38.487,312.217 38.458 C 313.152 38.428,312.342 38.404,310.417 38.404 C 308.492 38.404,307.727 38.428,308.717 38.458 M334.699 38.458 C 335.679 38.487,337.329 38.487,338.366 38.458 C 339.402 38.429,338.600 38.404,336.583 38.404 C 334.567 38.404,333.719 38.428,334.699 38.458 M355.375 38.458 C 359.202 38.483,365.465 38.483,369.292 38.458 C 373.119 38.433,369.988 38.413,362.333 38.413 C 354.679 38.413,351.548 38.433,355.375 38.458 M36.750 43.167 C 37.201 43.625,37.608 44.000,37.654 44.000 C 37.700 44.000,37.368 43.625,36.917 43.167 C 36.465 42.708,36.058 42.333,36.013 42.333 C 35.967 42.333,36.299 42.708,36.750 43.167 M281.211 43.786 C 281.464 43.825,281.839 43.824,282.044 43.784 C 282.249 43.744,282.042 43.713,281.583 43.714 C 281.125 43.716,280.957 43.748,281.211 43.786 M108.241 44.712 C 108.197 44.829,108.182 46.573,108.208 48.587 L 108.257 52.250 108.295 48.460 L 108.333 44.669 117.875 44.625 L 127.417 44.581 117.870 44.540 C 110.262 44.508,108.306 44.543,108.241 44.712 M361.054 44.625 C 363.879 44.651,368.454 44.651,371.220 44.625 C 373.987 44.599,371.675 44.578,366.083 44.578 C 360.492 44.578,358.228 44.599,361.054 44.625 M293.052 55.083 C 293.053 55.633,293.084 55.838,293.121 55.539 C 293.158 55.239,293.157 54.789,293.119 54.539 C 293.081 54.288,293.051 54.533,293.052 55.083 M270.048 55.083 C 270.049 55.542,270.081 55.709,270.120 55.456 C 270.158 55.203,270.157 54.828,270.117 54.623 C 270.078 54.418,270.046 54.625,270.048 55.083 M47.331 58.292 L 45.417 60.250 47.375 58.336 C 49.194 56.558,49.409 56.333,49.289 56.333 C 49.265 56.333,48.383 57.215,47.331 58.292 M211.081 64.750 L 211.083 71.750 214.792 71.755 L 218.500 71.760 214.835 71.710 L 211.170 71.660 211.124 64.705 L 211.078 57.750 211.081 64.750 M108.206 65.038 L 108.167 71.660 104.458 71.708 L 100.750 71.757 104.464 71.795 C 107.313 71.824,108.196 71.785,108.257 71.625 C 108.301 71.510,108.317 68.491,108.292 64.916 L 108.246 58.417 108.206 65.038 M42.073 63.542 L 41.583 64.083 42.125 63.594 C 42.630 63.138,42.743 63.000,42.615 63.000 C 42.586 63.000,42.342 63.244,42.073 63.542 M361.292 65.625 C 364.248 65.650,369.085 65.650,372.042 65.625 C 374.998 65.599,372.579 65.579,366.667 65.579 C 360.754 65.579,358.335 65.599,361.292 65.625 M236.385 66.125 C 237.835 66.153,240.160 66.152,241.552 66.125 C 242.944 66.097,241.758 66.074,238.917 66.074 C 236.075 66.074,234.936 66.097,236.385 66.125 M362.417 71.667 L 348.417 71.753 362.365 71.793 C 371.528 71.820,376.349 71.776,376.417 71.667 C 376.473 71.575,376.496 71.518,376.468 71.540 C 376.440 71.562,370.117 71.619,362.417 71.667 M134.792 71.791 C 135.823 71.820,137.510 71.820,138.542 71.791 C 139.573 71.762,138.729 71.738,136.667 71.738 C 134.604 71.738,133.760 71.762,134.792 71.791 M187.384 71.791 C 188.467 71.820,190.192 71.820,191.218 71.791 C 192.244 71.762,191.358 71.738,189.250 71.738 C 187.142 71.738,186.302 71.762,187.384 71.791 M231.137 71.792 C 233.549 71.818,237.449 71.818,239.803 71.792 C 242.157 71.765,240.183 71.744,235.417 71.744 C 230.650 71.744,228.724 71.766,231.137 71.792 M308.699 71.791 C 309.679 71.820,311.329 71.820,312.366 71.791 C 313.402 71.762,312.600 71.738,310.583 71.738 C 308.567 71.738,307.719 71.762,308.699 71.791 M335.051 71.791 C 336.041 71.821,337.616 71.821,338.551 71.791 C 339.485 71.761,338.675 71.737,336.750 71.737 C 334.825 71.737,334.060 71.762,335.051 71.791 " stroke="none" fill="#6c8ca4" fill-rule="evenodd"></path><path id="path4" d="M50.494 22.292 L 49.583 23.250 50.542 22.339 C 51.432 21.493,51.576 21.333,51.453 21.333 C 51.427 21.333,50.995 21.765,50.494 22.292 M44.500 28.270 C 44.500 28.357,44.931 28.838,45.458 29.339 L 46.417 30.250 45.500 29.254 C 44.996 28.706,44.565 28.225,44.542 28.184 C 44.519 28.144,44.500 28.182,44.500 28.270 M244.375 38.448 C 244.535 38.490,244.798 38.490,244.958 38.448 C 245.119 38.406,244.987 38.372,244.667 38.372 C 244.346 38.372,244.215 38.406,244.375 38.448 M140.413 55.083 C 140.413 64.250,140.434 68.024,140.458 63.471 C 140.483 58.918,140.483 51.418,140.458 46.804 C 140.434 42.191,140.414 45.917,140.413 55.083 M185.413 55.083 C 185.413 64.250,185.434 68.024,185.458 63.471 C 185.483 58.918,185.483 51.418,185.458 46.804 C 185.434 42.191,185.414 45.917,185.413 55.083 M226.747 55.083 C 226.747 64.250,226.767 68.024,226.792 63.471 C 226.816 58.918,226.816 51.418,226.792 46.804 C 226.767 42.191,226.747 45.917,226.747 55.083 M306.913 55.083 C 306.913 64.250,306.934 68.024,306.958 63.471 C 306.983 58.918,306.983 51.418,306.958 46.804 C 306.934 42.191,306.914 45.917,306.913 55.083 M355.904 48.083 C 355.904 50.008,355.928 50.773,355.958 49.783 C 355.987 48.792,355.987 47.217,355.958 46.283 C 355.928 45.348,355.904 46.158,355.904 48.083 M82.585 52.500 C 84.601 54.563,86.284 56.228,86.326 56.202 C 86.368 56.175,84.719 54.488,82.661 52.452 L 78.920 48.750 82.585 52.500 M197.458 51.292 C 199.956 51.317,204.044 51.317,206.542 51.292 C 209.040 51.266,206.996 51.244,202.000 51.244 C 197.004 51.244,194.960 51.266,197.458 51.292 M262.221 55.083 C 262.222 55.725,262.252 55.967,262.288 55.621 C 262.324 55.275,262.324 54.750,262.287 54.455 C 262.250 54.159,262.221 54.442,262.221 55.083 M300.885 55.083 C 300.886 55.633,300.917 55.838,300.954 55.539 C 300.991 55.239,300.990 54.789,300.952 54.539 C 300.914 54.288,300.884 54.533,300.885 55.083 M68.664 59.458 L 66.583 61.583 68.708 59.503 C 69.877 58.358,70.833 57.402,70.833 57.378 C 70.833 57.258,70.597 57.484,68.664 59.458 M355.905 61.583 C 355.905 63.783,355.929 64.660,355.958 63.532 C 355.987 62.404,355.987 60.604,355.958 59.532 C 355.929 58.460,355.905 59.383,355.905 61.583 M112.792 58.458 C 115.290 58.484,119.377 58.484,121.875 58.458 C 124.373 58.432,122.329 58.411,117.333 58.411 C 112.337 58.411,110.294 58.432,112.792 58.458 M257.885 62.083 C 257.886 62.633,257.917 62.838,257.954 62.539 C 257.991 62.239,257.990 61.789,257.952 61.539 C 257.914 61.288,257.884 61.533,257.885 62.083 M61.583 66.500 C 59.660 68.425,58.124 70.000,58.170 70.000 C 58.215 70.000,59.827 68.425,61.750 66.500 C 63.673 64.575,65.210 63.000,65.164 63.000 C 65.118 63.000,63.507 64.575,61.583 66.500 M162.792 66.787 C 163.090 66.824,163.577 66.824,163.875 66.787 C 164.173 66.750,163.929 66.720,163.333 66.720 C 162.737 66.720,162.494 66.750,162.792 66.787 M55.914 72.208 L 54.083 74.083 55.958 72.253 C 56.990 71.246,57.833 70.402,57.833 70.378 C 57.833 70.258,57.614 70.467,55.914 72.208 M244.294 71.785 C 244.501 71.824,244.801 71.823,244.960 71.781 C 245.120 71.739,244.950 71.707,244.583 71.709 C 244.217 71.711,244.086 71.745,244.294 71.785 M162.958 72.618 C 163.165 72.657,163.502 72.657,163.708 72.618 C 163.915 72.578,163.746 72.545,163.333 72.545 C 162.921 72.545,162.752 72.578,162.958 72.618 M281.125 72.618 C 281.331 72.657,281.669 72.657,281.875 72.618 C 282.081 72.578,281.912 72.545,281.500 72.545 C 281.087 72.545,280.919 72.578,281.125 72.618 " stroke="none" fill="#487292" fill-rule="evenodd"></path></g></svg>